<?xml version="1.0" encoding="utf-8"?>
<!-- Generator: Adobe Illustrator 18.1.1, SVG Export Plug-In . SVG Version: 6.00 Build 0)  -->
<svg version="1.1" id="Layer_1" xmlns="http://www.w3.org/2000/svg" xmlns:xlink="http://www.w3.org/1999/xlink" x="0px" y="0px"
	 viewBox="0 0 500 500" enable-background="new 0 0 500 500" xml:space="preserve">
<g>
	<g>
		<path fill="#B270A1" d="M416.9,158.4c0,42.8-34.7,77.5-77.6,77.5c-42.8,0-77.5-34.7-77.5-77.6c0-42.8,34.7-77.5,77.5-77.5
			C382.2,80.9,416.9,115.6,416.9,158.4z"/>
	</g>
	<path fill="#53BFD5" d="M351.5,263.6c-36.1,0-64.5,29.1-65.8,64.7v8.4c0,2.8-2.3,5.1-5.2,5.1H267c-2.9,0-5.2,2.3-5.2,5.1v4.8
		c0,36.8,30.2,67,67.6,67c37.4,0,67.6-30.1,67.6-67V347c0-2.9,2.4-5.3,5.3-5.3h10c2.5,0,4.6-2,4.6-4.6v-9
		C415.5,292.7,387.6,263.6,351.5,263.6z"/>
	<path fill="#FDC155" d="M225.1,265H88.5c-2.9,0-5.5,0.9-5.5,3.8v48.8c0,2.9,2.7,5.5,5.5,5.5H111v89.9c0,3,2.2,6.1,5.2,6.1h81.2
		c3,0,5.6-3.2,5.6-6.1V323h22.1c2.9,0,4.9-2.6,4.9-5.5v-48.8C230,265.9,228,265,225.1,265z"/>
	<path fill="#EE5126" d="M152.2,80.9L152.2,80.9l-56.6,0c-3,0-5.4,2.4-5.4,5.4v144.2c0,3,2.4,5.4,5.4,5.4l56.6,0
		c42.8,0.2,77.5-34.6,77.5-77.6C229.8,115.5,195,80.7,152.2,80.9z"/>
</g>
</svg>
